<svg preserveAspectRatio="none" width="100%" height="100%" overflow="visible" style="display: block;" viewBox="0 0 1181.58 304.961" fill="none" xmlns="http://www.w3.org/2000/svg">
<g id="Illo">
<path id="Vector 124" d="M24.0065 24.0065C66.046 140.864 222.26 209.936 352.844 185.528C378.017 180.823 410.568 166.019 431.938 152.653C437.461 149.199 436.884 157.153 437.422 160.309C439.283 171.239 444.442 181.198 452.376 189.731C482.927 222.587 558.802 200.72 593.948 189.431C649.576 171.563 701.532 145.808 756.124 125.633C766.387 121.84 762.458 133.028 762.936 139.293C765.09 167.502 802.668 187.972 829.235 196.336C860.043 206.035 894.153 213.451 926.94 213.149C938.147 213.045 947.817 210.094 958.178 206.544C962.298 205.132 971.797 199.187 976.29 200.089C980.241 200.882 969.995 219.811 969.145 222.306C964.396 236.249 969.398 243.099 981.109 253.679C1010.57 280.293 1040.85 280.7 1080.97 280.7C1106.71 280.7 1133.99 283.248 1157.57 272.593" stroke="var(--stroke-0, #FFC700)" stroke-width="48" stroke-linecap="round" stroke-linejoin="round"/>
<path id="Vector 125" d="M24.0065 24.0065C66.046 140.864 222.26 209.936 352.844 185.528C378.017 180.823 410.568 166.019 431.938 152.653C437.461 149.199 436.884 157.153 437.422 160.309C439.283 171.239 444.442 181.198 452.376 189.731C482.927 222.587 558.802 200.72 593.948 189.431C649.576 171.563 701.532 145.808 756.124 125.633C766.387 121.84 762.458 133.028 762.936 139.293C765.09 167.502 802.668 187.972 829.235 196.336C860.043 206.035 894.153 213.451 926.94 213.149C938.147 213.045 947.817 210.094 958.178 206.544C962.298 205.132 971.797 199.187 976.29 200.089C980.241 200.882 969.995 219.811 969.145 222.306C964.396 236.249 969.398 243.099 981.109 253.679C1010.57 280.293 1040.85 280.7 1080.97 280.7C1106.71 280.7 1133.99 283.248 1157.57 272.593" stroke="var(--stroke-0, black)" stroke-width="4" stroke-linecap="round" stroke-linejoin="round"/>
<ellipse id="Ellipse 73" cx="12.6303" cy="11.4102" rx="12.6303" ry="11.4102" transform="matrix(1 0 0 -1 199.252 188.971)" fill="var(--fill-0, white)" stroke="var(--stroke-0, black)" stroke-width="4"/>
<ellipse id="Ellipse 74" cx="12.6303" cy="11.4102" rx="12.6303" ry="11.4102" transform="matrix(1 0 0 -1 420.675 164.011)" fill="var(--fill-0, white)" stroke="var(--stroke-0, black)" stroke-width="4"/>
<ellipse id="Ellipse 75" cx="12.6303" cy="11.4102" rx="12.6303" ry="11.4102" transform="matrix(1 0 0 -1 576.976 201.451)" fill="var(--fill-0, white)" stroke="var(--stroke-0, black)" stroke-width="4"/>
</g>
</svg>
