<svg preserveAspectRatio="none" width="100%" height="100%" overflow="visible" style="display: block;" viewBox="0 0 175.741 97.2808" fill="none" xmlns="http://www.w3.org/2000/svg">
<path id="Vector 132" d="M175.741 3C175.741 1.34315 174.398 0 172.741 0C171.084 0 169.741 1.34315 169.741 3H172.741H175.741ZM4.31055 64.3094C2.65528 64.237 1.25475 65.5202 1.18237 67.1755L0.00291729 94.1497C-0.0694594 95.805 1.21373 97.2055 2.869 97.2779C4.52428 97.3503 5.92481 96.0671 5.99719 94.4118L7.04559 70.4347L31.0227 71.4831C32.678 71.5555 34.0785 70.2723 34.1509 68.6171C34.2232 66.9618 32.9401 65.5612 31.2848 65.4889L4.31055 64.3094ZM172.741 3H169.741C169.741 26.756 162.087 45.1663 150.088 58.8058C138.054 72.4841 121.509 81.5193 103.536 86.2057C67.3738 95.6349 26.5209 87.2502 6.39147 65.2799L4.1795 67.3065L1.96754 69.3332C24.0584 93.4442 67.4862 101.806 105.05 92.0116C123.94 87.0862 141.618 77.517 154.593 62.7689C167.602 47.982 175.741 28.1439 175.741 3H172.741Z" fill="var(--stroke-0, #202020)"/>
</svg>
