<svg preserveAspectRatio="none" width="100%" height="100%" overflow="visible" style="display: block;" viewBox="0 0 406 16.8397" fill="none" xmlns="http://www.w3.org/2000/svg">
<g id="Frame 5">
<path id="Vector 1" d="M0.5 0V16.8397" stroke="var(--stroke-0, #D3D3D3)"/>
<path id="Vector 2" d="M27.5 8.68445L27.5 16.8397" stroke="var(--stroke-0, #D3D3D3)"/>
<path id="Vector 3" d="M54.5 8.68445L54.5 16.8397" stroke="var(--stroke-0, #D3D3D3)"/>
<path id="Vector 4" d="M81.5 8.68445L81.5 16.8397" stroke="var(--stroke-0, #D3D3D3)"/>
<path id="Vector 5" d="M108.5 8.68445L108.5 16.8397" stroke="var(--stroke-0, #D3D3D3)"/>
<path id="Vector 6" d="M135.5 8.68445L135.5 16.8397" stroke="var(--stroke-0, #D3D3D3)"/>
<path id="Vector 7" d="M162.5 8.68445L162.5 16.8397" stroke="var(--stroke-0, #D3D3D3)"/>
<path id="Vector 8" d="M189.5 8.68445L189.5 16.8397" stroke="var(--stroke-0, #D3D3D3)"/>
<path id="Vector 9" d="M216.5 8.68445L216.5 16.8397" stroke="var(--stroke-0, #D3D3D3)"/>
<path id="Vector 10" d="M243.5 8.68445L243.5 16.8397" stroke="var(--stroke-0, #D3D3D3)"/>
<path id="Vector 11" d="M270.5 8.68445L270.5 16.8397" stroke="var(--stroke-0, #D3D3D3)"/>
<path id="Vector 12" d="M297.5 8.68445L297.5 16.8397" stroke="var(--stroke-0, #D3D3D3)"/>
<path id="Vector 13" d="M324.5 8.68445L324.5 16.8397" stroke="var(--stroke-0, #D3D3D3)"/>
<path id="Vector 14" d="M351.5 8.68445L351.5 16.8397" stroke="var(--stroke-0, #D3D3D3)"/>
<path id="Vector 15" d="M378.5 8.68445L378.5 16.8397" stroke="var(--stroke-0, #D3D3D3)"/>
<path id="Vector 16" d="M405.5 0V16.8397" stroke="var(--stroke-0, #D3D3D3)"/>
</g>
</svg>
